{
 "asset": {
  "version": "2.0",
  "generator": "preflight synthetic builder (not Blender)"
 },
 "scene": 0,
 "scenes": [
  {
   "nodes": [
    0
   ]
  }
 ],
 "nodes": [
  {
   "name": "prop_barrel",
   "mesh": 0
  }
 ],
 "meshes": [
  {
   "name": "prop_barrel",
   "primitives": [
    {
     "attributes": {
      "POSITION": 0,
      "NORMAL": 1,
      "TEXCOORD_0": 2
     },
     "mode": 4,
     "indices": 3,
     "material": 0
    }
   ]
  }
 ],
 "materials": [
  {
   "name": "barrel_mat",
   "pbrMetallicRoughness": {
    "baseColorFactor": [
     1,
     1,
     1,
     1
    ],
    "metallicFactor": 0.0,
    "roughnessFactor": 1.0,
    "baseColorTexture": {
     "index": 0
    }
   },
   "normalTexture": {
    "index": 1
   }
  }
 ],
 "images": [
  {
   "name": "barrel_albedo",
   "uri": "textures/barrel_albedo.png"
  },
  {
   "name": "barrel_normal",
   "uri": "textures/barrel_normal.png"
  }
 ],
 "textures": [
  {
   "source": 0
  },
  {
   "source": 1
  }
 ],
 "accessors": [
  {
   "bufferView": 0,
   "componentType": 5126,
   "count": 68,
   "type": "VEC3",
   "min": [
    -0.4,
    0.0,
    -0.4
   ],
   "max": [
    0.4,
    1.0,
    0.4
   ]
  },
  {
   "bufferView": 1,
   "componentType": 5126,
   "count": 68,
   "type": "VEC3"
  },
  {
   "bufferView": 2,
   "componentType": 5126,
   "count": 68,
   "type": "VEC2"
  },
  {
   "bufferView": 3,
   "componentType": 5123,
   "count": 192,
   "type": "SCALAR"
  }
 ],
 "bufferViews": [
  {
   "buffer": 0,
   "byteOffset": 0,
   "byteLength": 816,
   "target": 34962
  },
  {
   "buffer": 0,
   "byteOffset": 816,
   "byteLength": 816,
   "target": 34962
  },
  {
   "buffer": 0,
   "byteOffset": 1632,
   "byteLength": 544,
   "target": 34962
  },
  {
   "buffer": 0,
   "byteOffset": 2176,
   "byteLength": 384,
   "target": 34963
  }
 ],
 "buffers": [
  {
   "byteLength": 2560,
   "uri": "data:application/octet-stream;base64,"
  }
 ]
}